<svg xmlns="http://www.w3.org/2000/svg" viewBox="0 0 565 565"><defs><style>.cls-1{fill:#58b3c1;}.cls-2,.cls-3,.cls-4{fill:#fff;}.cls-3{stroke:#ffff9f;}.cls-3,.cls-4{stroke-miterlimit:10;stroke-width:2px;}.cls-4{stroke:#fff;}</style></defs><title>SMHL_1</title><g id="Calque_2" data-name="Calque 2"><g id="Calque_1-2" data-name="Calque 1"><polygon class="cls-1" points="565 565 0 565 0 0 565 0 565 456.98 565 565"/><path class="cls-2" d="M194.39,181.71l1.2-1.44A13.4,13.4,0,0,0,205,184c4.8,0,7.32-2.88,7.32-6.12,0-3.84-3.84-5.52-7.2-6.72-4.44-1.56-9.36-3.24-9.36-8.16,0-4,3.12-7.44,9-7.44a13,13,0,0,1,7.92,2.88l-1.08,1.44a11,11,0,0,0-7-2.64c-4.8,0-7,2.82-7,5.64,0,3.48,3.48,4.8,7,6.12,4.56,1.74,9.6,3.12,9.6,8.76,0,4.2-3.36,7.92-9.36,7.92A16.08,16.08,0,0,1,194.39,181.71Z"/><path class="cls-2" d="M220.91,177.39V158h-4.56v-1.44l4.56-.24.24-8.4h1.56v8.4h8.52V158h-8.52v19.68c0,3.72.84,6.36,5,6.36a10.67,10.67,0,0,0,3.72-1l.6,1.56a16.62,16.62,0,0,1-4.44,1.08C222.35,185.67,220.91,182.31,220.91,177.39Z"/><path class="cls-2" d="M237.35,174.75V156.27h1.8v18.24c0,6.36,2,9.48,7,9.48,3.6,0,6.24-1.92,9.84-6.24V156.27h1.8V185h-1.56L256,180h-.12c-2.88,3.36-5.88,5.64-9.84,5.64C240.11,185.67,237.35,182.19,237.35,174.75Z"/><path class="cls-2" d="M266.15,170.67c0-9.24,5.88-15.12,12.84-15.12,3.48,0,5.88,1.32,8.88,3.6l-.12-5.4V141.63h1.79V185H288l-.24-3.84h-.12c-2.4,2.4-5.64,4.56-9.6,4.56C270.83,185.67,266.15,180.39,266.15,170.67Zm21.6,8.28V161.19c-3.24-2.88-5.88-4-8.88-4-6.12,0-10.8,6-10.8,13.44,0,7.92,3.6,13.32,10.08,13.32C281.51,184,284.51,182.19,287.75,179Z"/><path class="cls-2" d="M298,170.67c0-9.36,6-15.12,12.36-15.12,6.6,0,10.8,4.68,10.8,13.2a11,11,0,0,1-.12,1.92H299.87c0,7.68,4.44,13.32,11.28,13.32a13.09,13.09,0,0,0,7.92-2.64l.84,1.56a15.25,15.25,0,0,1-8.88,2.76C303.83,185.67,298,180,298,170.67ZM319.3,169c0-7.92-3.59-11.76-9-11.76-5.16,0-9.84,4.44-10.44,11.76Z"/><path class="cls-2" d="M328.55,156.27h1.56l.24,4.56h.12c3-3,6-5.28,10-5.28,5.87,0,8.64,3.48,8.64,10.92V185h-1.8V166.71c0-6.36-2-9.48-7-9.48-3.6,0-6.24,1.92-10,5.76v22h-1.8Z"/><path class="cls-2" d="M360.1,177.39V158h-4.56v-1.44l4.56-.24.24-8.4h1.56v8.4h8.52V158H361.9v19.68c0,3.72.85,6.36,5,6.36a10.67,10.67,0,0,0,3.72-1l.6,1.56a16.62,16.62,0,0,1-4.44,1.08C361.54,185.67,360.1,182.31,360.1,177.39Z"/><path class="cls-2" d="M83.37,228.14h2.24l.29,4.47H86c2.62-2.94,5.89-5.19,9.11-5.19,4.62,0,6.93,2.32,8,5.88,3.27-3.6,6.45-5.88,9.78-5.88,5.73,0,8.61,3.61,8.61,11.05V257h-2.65V238.82c0-6.11-2-9-6.46-9-2.71,0-5.44,1.8-8.62,5.42V257H101.1V238.82c0-6.11-2-9-6.45-9-2.61,0-5.45,1.8-8.63,5.42V257H83.37Z"/><path class="cls-2" d="M135.67,242.6c0-9.4,6.1-15.18,12.56-15.18,6.83,0,11,4.86,11,13.33a13.08,13.08,0,0,1-.15,2.16H138.39c.09,7.27,4.35,12.47,10.85,12.47a13,13,0,0,0,7.74-2.56l1.09,2a15.75,15.75,0,0,1-9.09,2.84C141.63,257.67,135.67,252,135.67,242.6Zm21.09-1.88c0-7.35-3.34-11-8.51-11-4.87,0-9.27,4.13-9.87,11Z"/><path class="cls-2" d="M173.07,228.14h2.24l.29,4.46h.13c2.94-2.93,5.94-5.18,9.91-5.18,6,0,8.71,3.61,8.71,11.05V257H191.7V238.82c0-6.11-1.93-9-6.56-9-3.43,0-5.92,1.82-9.42,5.42V257h-2.65Z"/><path class="cls-2" d="M211.66,249V230.45h-4.5v-2.06l4.56-.25.34-8.34h2.25v8.34h8.35v2.31h-8.35v18.74c0,3.68.93,6.16,4.9,6.16a10.27,10.27,0,0,0,3.61-.91l.69,2.15a16.8,16.8,0,0,1-4.7,1.08C213.28,257.67,211.66,254.15,211.66,249Z"/><path class="cls-2" d="M232.32,249.78c0-6.4,5.78-9.45,18.59-10.87.09-4.43-1.13-9.17-6.79-9.17a15.74,15.74,0,0,0-9.18,3.39l-1.22-2a19.33,19.33,0,0,1,10.71-3.74c6.83,0,9.13,5,9.13,11.12V257h-2.24L251,253.2h-.13c-2.94,2.38-6.44,4.47-10.22,4.47C236.12,257.67,232.32,255.18,232.32,249.78Zm18.59.95v-9.8C239.08,242.3,235,245,235,249.64c0,4.13,2.79,5.72,6.1,5.72S247.35,253.77,250.91,250.73Z"/><path class="cls-2" d="M269.85,253.08V213.79h2.65v39.65c0,1.29.53,1.89,1.25,1.89a4.55,4.55,0,0,0,1.08-.12l.44,2.16a6.15,6.15,0,0,1-1.91.3C271.05,257.67,269.85,256.24,269.85,253.08Z"/><path class="cls-2" d="M308.07,213.79h2.65v12.52l-.05,6.35c3-3,6-5.24,10-5.24,5.95,0,8.71,3.61,8.71,11.05V257H326.7V238.82c0-6.11-1.93-9-6.56-9-3.43,0-5.92,1.82-9.42,5.42V257h-2.65Z"/><path class="cls-2" d="M343.32,242.6c0-9.4,6.11-15.18,12.57-15.18,6.82,0,11,4.86,11,13.33a12.09,12.09,0,0,1-.16,2.16H346.05c.09,7.27,4.35,12.47,10.85,12.47a13,13,0,0,0,7.73-2.56l1.1,2a15.75,15.75,0,0,1-9.09,2.84C349.29,257.67,343.32,252,343.32,242.6Zm21.1-1.88c0-7.35-3.34-11-8.51-11-4.87,0-9.27,4.13-9.87,11Z"/><path class="cls-2" d="M377.76,249.78c0-6.4,5.77-9.45,18.59-10.87.08-4.43-1.13-9.17-6.79-9.17a15.74,15.74,0,0,0-9.18,3.39l-1.22-2a19.3,19.3,0,0,1,10.71-3.74c6.83,0,9.13,5,9.13,11.12V257h-2.24l-.29-3.75h-.13c-2.94,2.38-6.45,4.47-10.23,4.47C381.55,257.67,377.76,255.18,377.76,249.78Zm18.59.95v-9.8c-11.83,1.37-15.88,4.11-15.88,8.71,0,4.13,2.8,5.72,6.11,5.72S392.79,253.77,396.35,250.73Z"/><path class="cls-2" d="M415.29,253.08V213.79h2.65v39.65c0,1.29.53,1.89,1.25,1.89a4.55,4.55,0,0,0,1.08-.12l.44,2.16a6.15,6.15,0,0,1-1.91.3C416.49,257.67,415.29,256.24,415.29,253.08Z"/><path class="cls-2" d="M436.18,249V230.45h-4.5v-2.06l4.56-.25.33-8.34h2.26v8.34h8.35v2.31h-8.35v18.74c0,3.68.92,6.16,4.9,6.16a10.38,10.38,0,0,0,3.61-.91l.69,2.15a16.8,16.8,0,0,1-4.7,1.08C437.8,257.67,436.18,254.15,436.18,249Z"/><path class="cls-2" d="M460.23,213.79h2.65v12.52l-.05,6.35c3-3,6-5.24,10-5.24,5.95,0,8.71,3.61,8.71,11.05V257h-2.65V238.82c0-6.11-1.93-9-6.56-9-3.43,0-5.92,1.82-9.42,5.42V257h-2.65Z"/><path class="cls-2" d="M197.33,325.83v-40.2h1.8v40.56c0,1.2.48,1.8,1.2,1.8a4.64,4.64,0,0,0,1.08-.12l.36,1.56a5.33,5.33,0,0,1-1.56.24C198.41,329.67,197.33,328.59,197.33,325.83Z"/><path class="cls-2" d="M210.05,290.91a2,2,0,1,1,4.08,0,2,2,0,1,1-4.08,0Zm1.08,9.36h1.8V329h-1.8Z"/><path class="cls-2" d="M222.29,321.93c0-6.42,5.88-9.42,18.84-10.86.12-4.68-1.08-9.84-7.08-9.84a15.68,15.68,0,0,0-9.36,3.48l-1-1.44a18.52,18.52,0,0,1,10.44-3.72c6.72,0,8.76,5,8.76,10.8V329h-1.56l-.24-3.84H241c-3,2.4-6.6,4.56-10.44,4.56C226.13,329.67,222.29,327.39,222.29,321.93Zm18.84,1.14V312.63c-12.6,1.44-16.92,4.32-16.92,9.24,0,4.44,3,6.12,6.48,6.12S237.29,326.31,241.13,323.07Z"/><path class="cls-2" d="M252.53,290.91a2,2,0,1,1,4.08,0,2,2,0,1,1-4.08,0Zm1.08,9.36h1.8V329h-1.8Z"/><path class="cls-2" d="M263.21,325.71l1.2-1.44a13.35,13.35,0,0,0,9.35,3.72c4.8,0,7.32-2.88,7.32-6.12,0-3.84-3.84-5.52-7.2-6.72-4.44-1.56-9.35-3.24-9.35-8.16,0-4,3.11-7.44,9-7.44a13,13,0,0,1,7.92,2.88l-1.08,1.44a11,11,0,0,0-7-2.64c-4.8,0-6.95,2.82-6.95,5.64,0,3.48,3.47,4.8,6.95,6.12,4.56,1.74,9.6,3.12,9.6,8.76,0,4.2-3.36,7.92-9.36,7.92A16,16,0,0,1,263.21,325.71Z"/><path class="cls-2" d="M288.4,314.67c0-9.6,5.88-15.12,12.72-15.12s12.72,5.52,12.72,15.12-5.88,15-12.72,15S288.4,324.15,288.4,314.67Zm23.52,0c0-7.92-4.68-13.44-10.8-13.44s-10.8,5.52-10.8,13.44S295,328,301.12,328,311.92,322.59,311.92,314.67Z"/><path class="cls-2" d="M322.84,300.27h1.56l.24,4.56h.12c3-3,6-5.28,10-5.28,5.88,0,8.64,3.48,8.64,10.92V329h-1.8V310.71c0-6.36-2-9.48-7-9.48-3.6,0-6.24,1.92-10,5.76v22h-1.8Z"/><path class="cls-2" d="M350.68,325.71l1.2-1.44a13.4,13.4,0,0,0,9.36,3.72c4.8,0,7.32-2.88,7.32-6.12,0-3.84-3.84-5.52-7.2-6.72-4.44-1.56-9.36-3.24-9.36-8.16,0-4,3.12-7.44,9-7.44a13,13,0,0,1,7.92,2.88l-1.08,1.44a11,11,0,0,0-7-2.64c-4.8,0-7,2.82-7,5.64,0,3.48,3.48,4.8,7,6.12,4.56,1.74,9.6,3.12,9.6,8.76,0,4.2-3.36,7.92-9.36,7.92A16.08,16.08,0,0,1,350.68,325.71Z"/><line class="cls-3" x1="565" y1="457" y2="456.98"/><line class="cls-4" x1="565" y1="467" y2="466.98"/></g></g></svg>