<svg xmlns="http://www.w3.org/2000/svg" width="454" height="454" viewBox="0 0 454 454"><defs><style>.cls-1{fill:#666;}.cls-2{fill:#d5e76c;}</style></defs><title>SWAPbook</title><g id="Calque_2" data-name="Calque 2"><g id="Calque_1-2" data-name="Calque 1"><rect class="cls-1" width="454" height="454"/><path class="cls-2" d="M54.1245,379.0225a25.6764,25.6764,0,0,0-8.2856-1.4908A11.9966,11.9966,0,0,0,38.61,379.56,6.7084,6.7084,0,0,0,35.82,385.332q0,4.4378,7.315,7.8,5.4081,2.4962,7.1591,3.4668a17.9942,17.9942,0,0,1,3.5533,2.6695,13.2364,13.2364,0,0,1,2.895,4.0043,11.9676,11.9676,0,0,1,1.0918,5.1827q0,7.1418-4.8018,11.0761a17.306,17.306,0,0,1-11.3188,3.9351,23.4356,23.4356,0,0,1-11.0591-2.4961l1.1787-4.8882a24.23,24.23,0,0,0,9.7417,2.5308A11.54,11.54,0,0,0,49.3574,416.1a8.6312,8.6312,0,0,0,2.93-6.9165,8.3136,8.3136,0,0,0-1.9067-5.53q-1.9073-2.27-7.0376-4.6279-5.27-2.4265-6.8125-3.3106a14.3,14.3,0,0,1-3.0679-2.4443A11.3956,11.3956,0,0,1,31.105,389.77a10.6223,10.6223,0,0,1-.8321-4.2295,11.3126,11.3126,0,0,1,4.3682-9.4643A17.4772,17.4772,0,0,1,45.7,372.6782a32.6885,32.6885,0,0,1,9.707,1.4907Z"/><path class="cls-2" d="M106.1265,373.6143l-6.24,48.9165h-5.27l-8.32-27.5611-8.2857,27.5611H72.6025L66.501,373.6143h5.6162l4.1255,39.7641,7.2109-24.06h5.6856l7.2456,24.129,4.1948-39.8335Z"/><path class="cls-2" d="M148.3867,422.5308h-5.9629l-5.4082-17.126H120.9644l-5.4776,17.126h-5.8935l15.9819-48.9165h6.83Zm-13-22.0835-6.4135-20.2461-6.3789,20.2461Z"/><path class="cls-2" d="M159.0991,373.6143H171.51q7.0371,0,11.267,3.5361a12.0155,12.0155,0,0,1,4.23,9.7417,12.6438,12.6438,0,0,1-4.2124,9.9668q-4.2114,3.7273-11.0415,3.727h-6.9682v21.9449h-5.6856Zm5.6856,22.0141h6.1709q10.0188,0,10.019-8.39a7.9541,7.9541,0,0,0-2.7212-6.2749,10.2445,10.2445,0,0,0-7.02-2.3921h-6.4482Z"/><path class="cls-2" d="M205.6929,391.0869a13.0235,13.0235,0,0,1,4.8706-4.0215,14.3433,14.3433,0,0,1,6.4658-1.5254,11.2987,11.2987,0,0,1,9.8281,5.0616q3.5185,5.0617,3.5191,13.3125,0,8.3554-3.7442,13.9536a11.5186,11.5186,0,0,1-10.019,5.5991,12.433,12.433,0,0,1-6.292-1.6812,12.7767,12.7767,0,0,1-4.6284-4.455v5.2h-5.4082V373.6143h5.4082Zm0,5.3735v15.0113a14.8166,14.8166,0,0,0,4.1255,5.0962,8.6032,8.6032,0,0,0,5.3735,2.0454,7.8647,7.8647,0,0,0,6.9507-4.16,19.0366,19.0366,0,0,0,2.583-10.227q0-6.24-2.4614-10.1231A7.7142,7.7142,0,0,0,215.4,390.22Q209.68,390.22,205.6929,396.46Z"/><path class="cls-2" d="M256.7241,385.54a14.737,14.737,0,0,1,11.8565,5.2q4.4025,5.2,4.4028,13.6939,0,8.5635-4.4028,13.7978a16.0824,16.0824,0,0,1-23.7305.0176q-4.3857-5.2178-4.3853-13.8154,0-8.5284,4.4029-13.711A14.7581,14.7581,0,0,1,256.7241,385.54Zm0,33.212a8.9279,8.9279,0,0,0,7.7656-4.16,19.7322,19.7322,0,0,0,.0347-20.35,9.6119,9.6119,0,0,0-15.6006-.0518q-2.7737,3.97-2.7734,10.3135a17.5514,17.5514,0,0,0,2.8081,10.1406A8.9036,8.9036,0,0,0,256.7241,418.752Z"/><path class="cls-2" d="M299.3311,385.54a14.7368,14.7368,0,0,1,11.8564,5.2q4.4026,5.2,4.4028,13.6939,0,8.5635-4.4028,13.7978a16.0824,16.0824,0,0,1-23.7305.0176q-4.3857-5.2178-4.3852-13.8154,0-8.5284,4.4028-13.711A14.7583,14.7583,0,0,1,299.3311,385.54Zm0,33.212a8.928,8.928,0,0,0,7.7656-4.16,19.7319,19.7319,0,0,0,.0346-20.35,9.6118,9.6118,0,0,0-15.6005-.0518q-2.7738,3.97-2.7735,10.3135a17.5522,17.5522,0,0,0,2.8081,10.1406A8.9038,8.9038,0,0,0,299.3311,418.752Z"/><path class="cls-2" d="M359.48,422.5308h-7.107L337.05,404.5728l-3.5361,3.0507v14.9073h-5.4082V373.6143h5.4082v28.0463l16.9526-15.2539h6.8989l-16.4673,14.7686Z"/></g></g></svg>