<?xml version="1.0" encoding="UTF-8"?>
<svg id="Layer_1" data-name="Layer 1" xmlns="http://www.w3.org/2000/svg" viewBox="0 0 454 454">
  <defs>
    <style>
      .cls-1, .cls-2 {
        stroke-width: 0px;
      }

      .cls-3 {
        isolation: isolate;
      }

      .cls-2 {
        fill: #ffe7c2;
      }
    </style>
  </defs>
  <rect class="cls-2" y="0" width="454" height="454"/>
  <g class="cls-3">
    <g class="cls-3">
      <path class="cls-1" d="m37.21,95.76c-3.97,0-5.89-2.37-5.89-7.06,0-1.13.12-2.43.35-3.8l2.57-16.44h-5.77l.64-3.86,5.83-.59,1.17-7.48,5.77-1.19-1.4,8.67h8.05l-.7,4.45h-8.05l-2.51,15.85c-.23,1.54-.35,2.79-.35,3.74,0,2.14.64,2.97,2.27,2.97s4.72-1.19,4.72-1.19l.93,3.21s-4.37,2.73-7.64,2.73Z"/>
      <path class="cls-1" d="m72.67,63.12c4.67,0,6.36,2.91,6.36,7.18,0,1.07-.12,2.26-.29,3.5l-2.62,16.62,4.9.89-.52,3.26-10.67.59,3.32-20.48c.12-.89.23-1.78.23-2.61,0-2.2-.7-3.92-3.03-3.92-7.58,0-12.19,16.32-12.19,16.32l-1.92,10.68h-5.54l6.42-40.96-4.9-1.19.52-3.26,10.67-.3-4.49,25.76c.23-.65,4.9-12.11,13.76-12.11Z"/>
      <path class="cls-1" d="m91.51,82.29c-.12.89-.17,1.78-.17,2.55,0,4.21,2.04,6.17,6.42,6.17s9.56-2.67,9.56-2.67l1.75,3.03s-6.18,4.39-13.06,4.39c-6.42,0-10.5-4.16-10.5-10.68,0-12.29,7.58-21.96,16.85-21.96,5.89,0,9.62,3.03,9.62,7.72,0,6.83-8.4,11.46-20.47,11.46Zm14.93-10.86c0-2.61-1.75-3.92-4.02-3.92-3.67,0-8.86,3.5-10.38,10.62,8.28,0,14.4-2.79,14.4-6.71Z"/>
      <path class="cls-1" d="m139.98,95.76c-6.65,0-10.73-4.63-10.73-11.75,0-12.46,7.06-20.89,17.15-20.89,7.17,0,10.96,4.93,10.96,11.69,0,12.94-7.35,20.95-17.38,20.95Zm11.61-21.07c0-5.05-2.74-6.83-6.24-6.83-6.82,0-10.26,7.72-10.26,16.32,0,4.75,2.45,6.83,5.95,6.83,6.77,0,10.56-6.83,10.56-16.32Z"/>
      <path class="cls-1" d="m175.09,59.26l-.76,4.75h8.22l-.76,4.45h-8.16l-4.37,27.9c-1.17,7.42-4.43,13.06-11.96,13.06-2.04,0-4.84-.77-4.84-.77l.99-3.8h4.14c3.5,0,5.25-2.85,5.95-7.3l4.49-29.08h-5.48l.58-3.86,5.6-.59.58-3.56c1.05-6.83,4.32-11.57,11.61-11.57,4.08,0,8.16,1.19,8.16,1.19l-1.52,8.31h-3.79v-4.75h-2.86c-4.08,0-5.31,2.37-5.83,5.64Z"/>
      <path class="cls-1" d="m211.54,90.42l4.96,1.48-.47,3.26h-10.79l4.2-26.71h-13.76l-4.37,27.9c-1.17,7.42-4.37,13.06-12.25,13.06-2.33,0-4.32-.59-4.32-.59l.7-4.15h4.2c3.5,0,5.19-2.67,5.95-7.12l4.49-29.08h-5.48l.58-3.86,5.6-.59.58-3.56c1.11-7.12,4.02-11.57,14.23-11.57,5.83,0,11.72,1.19,11.72,1.19l-1.75,8.43h-3.91v-4.63c-1.81-.12-4.02-.24-6.65-.24-5.25,0-7.29,2.08-7.87,5.64l-.76,4.75h13.76l5.6-.3-4.2,26.71Z"/>
      <path class="cls-1" d="m242.16,73.5l-.18-5.05s-1.4-.59-3.79-.59c-6.65,0-10.5,8.01-10.5,16.62,0,4.45,2.04,6.53,5.54,6.53,4.08,0,8.75-2.67,8.75-2.67l1.75,2.97s-5.83,4.45-11.66,4.45-10.21-3.86-10.21-10.98c0-13.06,7.29-21.67,17.2-21.67,4.67,0,8.17,2.37,8.17,2.37l-1.28,8.01h-3.79Z"/>
      <path class="cls-1" d="m254.23,82.29c-.12.89-.17,1.78-.17,2.55,0,4.21,2.04,6.17,6.41,6.17s9.56-2.67,9.56-2.67l1.75,3.03s-6.18,4.39-13.06,4.39c-6.42,0-10.5-4.16-10.5-10.68,0-12.29,7.58-21.96,16.85-21.96,5.89,0,9.62,3.03,9.62,7.72,0,6.83-8.4,11.46-20.47,11.46Zm14.93-10.86c0-2.61-1.75-3.92-4.02-3.92-3.67,0-8.86,3.5-10.38,10.62,8.28,0,14.4-2.79,14.4-6.71Z"/>
    </g>
    <g class="cls-3">
      <path class="cls-1" d="m62.87,162.81v3.26l-9.91.3-.47-3.38c-1.69,1.72-4.72,3.98-9.16,3.98-8.46,0-12.25-6.23-12.25-15.43,0-10.09,4.96-17.21,15.45-17.21,2.16,0,4.02.42,5.54.95v-9.85l-4.96-1.19v-3.26l10.79-.3v40.96l4.96,1.19Zm-16.91-23.74c-6.76,0-8.75,5.34-8.75,11.87s2.04,11.28,7.29,11.28c4.96,0,7.58-4.45,7.58-4.45v-17.51s-2.04-1.19-6.12-1.19Z"/>
      <path class="cls-1" d="m80.08,134.32c6.77,0,10.79,2.37,10.79,9.2v18.1l4.67,1.19v3.26l-9.04.3-1.22-4.15c-1.98,2.02-5.48,4.75-9.56,4.75-5.54,0-8.75-3.26-8.75-8.9,0-6.83,5.25-9.2,13.41-9.2h4.67v-4.75c0-3.56-2.04-5.34-5.54-5.34s-5.89.89-5.89.89l-.82,4.45h-3.79l-.29-7.42s6.42-2.37,11.37-2.37Zm-7.17,23.45c0,2.67,1.63,4.45,4.26,4.45,4.37,0,7.87-4.75,7.87-4.75v-4.75h-4.08c-5.83,0-8.05,1.48-8.05,5.04Z"/>
      <path class="cls-1" d="m118.57,135.21v4.45h-8.46v19.05c0,2.73,1.28,3.62,2.92,3.62,1.4,0,3.03-.65,4.55-1.48l1.57,3.15c-2.62,1.96-5.25,2.97-8.16,2.97-3.5,0-6.71-1.96-6.71-8.61v-18.7h-5.83v-3.86l5.83-.59v-7.48l5.83-1.19v8.67h8.46Z"/>
      <path class="cls-1" d="m136.07,134.32c6.77,0,10.79,2.37,10.79,9.2v18.1l4.67,1.19v3.26l-9.04.3-1.22-4.15c-1.98,2.02-5.48,4.75-9.56,4.75-5.54,0-8.75-3.26-8.75-8.9,0-6.83,5.25-9.2,13.41-9.2h4.67v-4.75c0-3.56-2.04-5.34-5.54-5.34s-5.89.89-5.89.89l-.82,4.45h-3.79l-.29-7.42s6.42-2.37,11.37-2.37Zm-7.17,23.45c0,2.67,1.63,4.45,4.26,4.45,4.37,0,7.87-4.75,7.87-4.75v-4.75h-4.08c-5.83,0-8.05,1.48-8.05,5.04Z"/>
      <path class="cls-1" d="m182.43,134.32c6.77,0,10.79,2.37,10.79,9.2v18.1l4.67,1.19v3.26l-9.04.3-1.22-4.15c-1.98,2.02-5.48,4.75-9.56,4.75-5.54,0-8.75-3.26-8.75-8.9,0-6.83,5.25-9.2,13.41-9.2h4.67v-4.75c0-3.56-2.04-5.34-5.54-5.34s-5.89.89-5.89.89l-.82,4.45h-3.79l-.29-7.42s6.42-2.37,11.37-2.37Zm-7.17,23.45c0,2.67,1.63,4.45,4.26,4.45,4.37,0,7.87-4.75,7.87-4.75v-4.75h-4.08c-5.83,0-8.05,1.48-8.05,5.04Z"/>
      <path class="cls-1" d="m222.97,134.32c6.42,0,9.33,4.16,9.33,10.68v16.62l4.37,1.48v3.26h-14v-3.26l3.79-1.48v-16.03c0-4.15-1.46-6.23-5.25-6.23-4.96,0-8.46,4.75-8.46,4.75v17.51l3.79,1.48v3.26h-14.58v-3.26l4.96-1.48v-21.96l-4.96-1.19v-3.26l9.62-.3.52,4.21c1.4-1.25,6.01-4.81,10.85-4.81Z"/>
      <path class="cls-1" d="m254.17,134.32c6.76,0,10.79,2.37,10.79,9.2v18.1l4.67,1.19v3.26l-9.04.3-1.22-4.15c-1.98,2.02-5.48,4.75-9.56,4.75-5.54,0-8.75-3.26-8.75-8.9,0-6.83,5.25-9.2,13.41-9.2h4.67v-4.75c0-3.56-2.04-5.34-5.54-5.34s-5.89.89-5.89.89l-.82,4.45h-3.79l-.29-7.42s6.42-2.37,11.37-2.37Zm-7.17,23.45c0,2.67,1.63,4.45,4.26,4.45,4.37,0,7.87-4.75,7.87-4.75v-4.75h-4.08c-5.83,0-8.05,1.48-8.05,5.04Z"/>
      <path class="cls-1" d="m289.28,163.1v3.26h-16.15v-3.26l4.96-1.48v-36.21l-4.96-1.19v-3.26l10.91-.3v40.96l5.25,1.48Z"/>
      <path class="cls-1" d="m299.78,139.06l7,20.77,6.41-20.48-4.08-.89v-3.26l13.82-.3v3.56l-3.79.59-8.28,23.51c-3.09,8.25-6.12,18.04-15.75,18.04-1.46,0-3.73-.3-3.73-.3l.53-4.51c.7.06,1.28.06,1.92.06,5.13,0,6.88-1.84,10.26-9.38l-10.44-27.13-3.5-.89v-3.26l13.71-.3v3.56l-4.08.59Z"/>
      <path class="cls-1" d="m330.63,161.98s1.75.53,4.9.53c3.5,0,6.59-1.01,6.59-4.69,0-6.41-16.27-3.44-16.27-14.25,0-6.17,4.67-9.26,10.67-9.26,4.61,0,9.97,1.78,9.97,1.78l-.17,8.01h-3.79l-.93-4.63s-1.81-.71-4.72-.71-5.19.95-5.19,3.98c0,6.35,16.27,3.92,16.27,14.07,0,6.83-5.83,10.15-12.83,10.15-5.37,0-9.21-1.31-9.21-1.31v-8.78h4.08l.64,5.1Z"/>
      <path class="cls-1" d="m368.08,163.1v3.26h-15.16v-3.26l4.96-1.48v-21.96l-4.96-1.19v-3.26l10.79-.3v26.71l4.38,1.48Zm-7.58-42.14c2.33,0,3.79,1.19,3.79,4.15,0,2.67-2.04,4.15-3.79,4.15-2.33,0-3.79-1.48-3.79-4.15s1.75-4.15,3.79-4.15Z"/>
      <path class="cls-1" d="m377.53,161.98s1.75.53,4.9.53c3.5,0,6.59-1.01,6.59-4.69,0-6.41-16.27-3.44-16.27-14.25,0-6.17,4.67-9.26,10.67-9.26,4.61,0,9.97,1.78,9.97,1.78l-.17,8.01h-3.79l-.93-4.63s-1.81-.71-4.72-.71-5.19.95-5.19,3.98c0,6.35,16.27,3.92,16.27,14.07,0,6.83-5.83,10.15-12.83,10.15-5.37,0-9.21-1.31-9.21-1.31v-8.78h4.08l.64,5.1Z"/>
    </g>
  </g>
</svg>