<?xml version="1.0" encoding="UTF-8"?>
<svg id="Layer_1" data-name="Layer 1" xmlns="http://www.w3.org/2000/svg" viewBox="0 0 454 454">
  <defs>
    <style>
      .cls-1, .cls-2 {
        stroke-width: 0px;
      }

      .cls-2 {
        fill: #ffe7c2;
      }
    </style>
  </defs>
  <rect class="cls-2" y="0" width="454" height="454"/>
  <g>
    <g>
      <path class="cls-1" d="m36.21,107.98c-3.52,0-5.22-2.03-5.22-6.04,0-.97.11-2.08.31-3.25l2.28-14.07h-5.11l.57-3.3,5.16-.51,1.04-6.4,5.11-1.02-1.24,7.42h7.13l-.62,3.81h-7.13l-2.22,13.57c-.2,1.32-.31,2.39-.31,3.2,0,1.83.57,2.54,2.01,2.54s4.18-1.02,4.18-1.02l.82,2.75s-3.87,2.34-6.77,2.34h0Z"/>
      <path class="cls-1" d="m67.61,80.04c4.14,0,5.63,2.49,5.63,6.15,0,.92-.11,1.93-.26,3l-2.32,14.23,4.34.76-.46,2.79-9.45.51,2.94-17.53c.11-.76.2-1.52.2-2.23,0-1.88-.62-3.36-2.68-3.36-6.71,0-10.79,13.97-10.79,13.97l-1.7,9.14h-4.91l5.69-35.06-4.34-1.02.46-2.79,9.45-.26-3.98,22.05c.2-.56,4.34-10.37,12.18-10.37v.03Z"/>
      <path class="cls-1" d="m84.29,96.45c-.11.76-.15,1.52-.15,2.18,0,3.6,1.81,5.28,5.69,5.28s8.47-2.29,8.47-2.29l1.55,2.59s-5.47,3.76-11.57,3.76c-5.69,0-9.3-3.56-9.3-9.14,0-10.52,6.71-18.8,14.92-18.8,5.22,0,8.52,2.59,8.52,6.61,0,5.85-7.44,9.81-18.13,9.81h0Zm13.22-9.3c0-2.23-1.55-3.36-3.56-3.36-3.25,0-7.85,3-9.19,9.09,7.33,0,12.75-2.39,12.75-5.74h0Z"/>
      <path class="cls-1" d="m127.22,107.98c-5.89,0-9.5-3.96-9.5-10.06,0-10.67,6.25-17.88,15.19-17.88,6.35,0,9.71,4.22,9.71,10.01,0,11.08-6.51,17.93-15.39,17.93Zm10.28-18.04c0-4.32-2.43-5.85-5.53-5.85-6.04,0-9.09,6.61-9.09,13.97,0,4.07,2.17,5.85,5.27,5.85,6,0,9.35-5.85,9.35-13.97h0Z"/>
      <path class="cls-1" d="m158.31,76.74l-.67,4.07h7.28l-.67,3.81h-7.23l-3.87,23.88c-1.04,6.35-3.92,11.18-10.59,11.18-1.81,0-4.29-.66-4.29-.66l.88-3.25h3.67c3.1,0,4.65-2.44,5.27-6.25l3.98-24.89h-4.85l.51-3.3,4.96-.51.51-3.05c.93-5.85,3.83-9.9,10.28-9.9,3.61,0,7.23,1.02,7.23,1.02l-1.35,7.11h-3.36v-4.07h-2.53c-3.61,0-4.7,2.03-5.16,4.83v-.02Z"/>
      <path class="cls-1" d="m190.58,103.41l4.39,1.27-.42,2.79h-9.55l3.72-22.86h-12.18l-3.87,23.88c-1.04,6.35-3.87,11.18-10.85,11.18-2.06,0-3.83-.51-3.83-.51l.62-3.55h3.72c3.1,0,4.6-2.29,5.27-6.09l3.98-24.89h-4.85l.51-3.3,4.96-.51.51-3.05c.98-6.09,3.56-9.9,12.6-9.9,5.16,0,10.38,1.02,10.38,1.02l-1.55,7.22h-3.46v-3.96c-1.6-.1-3.56-.21-5.89-.21-4.65,0-6.46,1.78-6.97,4.83l-.67,4.07h12.18l4.96-.26-3.72,22.86v-.02Z"/>
      <path class="cls-1" d="m217.7,88.93l-.16-4.32s-1.24-.51-3.36-.51c-5.89,0-9.3,6.86-9.3,14.23,0,3.81,1.81,5.59,4.91,5.59,3.61,0,7.75-2.29,7.75-2.29l1.55,2.54s-5.16,3.81-10.33,3.81-9.04-3.3-9.04-9.4c0-11.18,6.46-18.55,15.23-18.55,4.14,0,7.23,2.03,7.23,2.03l-1.13,6.86h-3.36Z"/>
      <path class="cls-1" d="m228.39,96.45c-.11.76-.15,1.52-.15,2.18,0,3.6,1.81,5.28,5.68,5.28s8.47-2.29,8.47-2.29l1.55,2.59s-5.47,3.76-11.57,3.76c-5.69,0-9.3-3.56-9.3-9.14,0-10.52,6.71-18.8,14.92-18.8,5.22,0,8.52,2.59,8.52,6.61,0,5.85-7.44,9.81-18.13,9.81h0Zm13.22-9.3c0-2.23-1.55-3.36-3.56-3.36-3.25,0-7.85,3-9.19,9.09,7.33,0,12.75-2.39,12.75-5.74h0Z"/>
    </g>
    <g>
      <path class="cls-1" d="m58.93,165.37v2.79l-8.78.26-.42-2.89c-1.5,1.47-4.18,3.41-8.11,3.41-7.49,0-10.85-5.33-10.85-13.21,0-8.64,4.39-14.73,13.68-14.73,1.91,0,3.56.36,4.91.81v-8.43l-4.39-1.02v-2.79l9.55-.26v35.06l4.39,1.02v-.02Zm-14.97-20.32c-5.99,0-7.75,4.57-7.75,10.16s1.81,9.66,6.46,9.66c4.39,0,6.71-3.81,6.71-3.81v-14.99s-1.81-1.02-5.42-1.02Z"/>
      <path class="cls-1" d="m74.17,140.99c6,0,9.55,2.03,9.55,7.87v15.49l4.14,1.02v2.79l-8.01.26-1.08-3.55c-1.75,1.73-4.85,4.07-8.47,4.07-4.91,0-7.75-2.79-7.75-7.62,0-5.85,4.65-7.87,11.87-7.87h4.14v-4.07c0-3.05-1.81-4.57-4.91-4.57s-5.22.76-5.22.76l-.73,3.81h-3.36l-.26-6.35s5.69-2.03,10.07-2.03h0Zm-6.35,20.07c0,2.29,1.44,3.81,3.77,3.81,3.87,0,6.97-4.07,6.97-4.07v-4.07h-3.61c-5.16,0-7.13,1.27-7.13,4.31h0Z"/>
      <path class="cls-1" d="m108.26,141.75v3.81h-7.49v16.31c0,2.34,1.13,3.1,2.59,3.1,1.24,0,2.68-.56,4.03-1.27l1.39,2.7c-2.32,1.68-4.65,2.54-7.23,2.54-3.1,0-5.94-1.68-5.94-7.37v-16.01h-5.16v-3.3l5.16-.51v-6.4l5.16-1.02v7.42s7.49,0,7.49,0Z"/>
      <path class="cls-1" d="m123.75,140.99c6,0,9.55,2.03,9.55,7.87v15.49l4.14,1.02v2.79l-8.01.26-1.08-3.55c-1.75,1.73-4.85,4.07-8.47,4.07-4.91,0-7.75-2.79-7.75-7.62,0-5.85,4.65-7.87,11.87-7.87h4.14v-4.07c0-3.05-1.81-4.57-4.91-4.57s-5.22.76-5.22.76l-.73,3.81h-3.36l-.26-6.35s5.69-2.03,10.07-2.03h0Zm-6.35,20.07c0,2.29,1.44,3.81,3.77,3.81,3.87,0,6.97-4.07,6.97-4.07v-4.07h-3.61c-5.16,0-7.13,1.27-7.13,4.31h0Z"/>
      <path class="cls-1" d="m164.81,140.99c6,0,9.55,2.03,9.55,7.87v15.49l4.14,1.02v2.79l-8.01.26-1.08-3.55c-1.75,1.73-4.85,4.07-8.47,4.07-4.91,0-7.75-2.79-7.75-7.62,0-5.85,4.65-7.87,11.87-7.87h4.14v-4.07c0-3.05-1.81-4.57-4.91-4.57s-5.22.76-5.22.76l-.73,3.81h-3.36l-.26-6.35s5.69-2.03,10.07-2.03h0Zm-6.35,20.07c0,2.29,1.44,3.81,3.77,3.81,3.87,0,6.97-4.07,6.97-4.07v-4.07h-3.61c-5.16,0-7.13,1.27-7.13,4.31h0Z"/>
      <path class="cls-1" d="m200.71,140.99c5.69,0,8.26,3.56,8.26,9.14v14.23l3.87,1.27v2.79h-12.4v-2.79l3.36-1.27v-13.72c0-3.55-1.29-5.33-4.65-5.33-4.39,0-7.49,4.07-7.49,4.07v14.99l3.36,1.27v2.79h-12.91v-2.79l4.39-1.27v-18.8l-4.39-1.02v-2.79l8.52-.26.46,3.6c1.24-1.07,5.32-4.12,9.61-4.12h.02Z"/>
      <path class="cls-1" d="m228.33,140.99c5.99,0,9.55,2.03,9.55,7.87v15.49l4.14,1.02v2.79l-8.01.26-1.08-3.55c-1.75,1.73-4.85,4.07-8.47,4.07-4.91,0-7.75-2.79-7.75-7.62,0-5.85,4.65-7.87,11.87-7.87h4.14v-4.07c0-3.05-1.81-4.57-4.91-4.57s-5.22.76-5.22.76l-.73,3.81h-3.36l-.26-6.35s5.69-2.03,10.07-2.03h0Zm-6.35,20.07c0,2.29,1.44,3.81,3.77,3.81,3.87,0,6.97-4.07,6.97-4.07v-4.07h-3.61c-5.16,0-7.13,1.27-7.13,4.31h0Z"/>
      <path class="cls-1" d="m259.43,165.62v2.79h-14.3v-2.79l4.39-1.27v-30.99l-4.39-1.02v-2.79l9.66-.26v35.06l4.65,1.27h0Z"/>
      <path class="cls-1" d="m268.72,145.04l6.2,17.78,5.68-17.53-3.61-.76v-2.79l12.24-.26v3.05l-3.36.51-7.33,20.12c-2.74,7.06-5.42,15.44-13.95,15.44-1.29,0-3.3-.26-3.3-.26l.47-3.86c.62.05,1.13.05,1.7.05,4.54,0,6.09-1.57,9.09-8.03l-9.24-23.22-3.1-.76v-2.79l12.14-.26v3.05l-3.61.51v.02Z"/>
      <path class="cls-1" d="m296.04,164.66s1.55.45,4.34.45c3.1,0,5.84-.86,5.84-4.01,0-5.49-14.41-2.94-14.41-12.2,0-5.28,4.14-7.93,9.45-7.93,4.08,0,8.83,1.52,8.83,1.52l-.15,6.86h-3.36l-.82-3.96s-1.6-.61-4.18-.61-4.6.81-4.6,3.41c0,5.44,14.41,3.36,14.41,12.04,0,5.85-5.16,8.69-11.36,8.69-4.76,0-8.16-1.12-8.16-1.12v-7.52h3.61l.57,4.37h0Z"/>
      <path class="cls-1" d="m329.21,165.62v2.79h-13.42v-2.79l4.39-1.27v-18.8l-4.39-1.02v-2.79l9.55-.26v22.86l3.88,1.27h0Zm-6.71-36.07c2.06,0,3.36,1.02,3.36,3.55,0,2.29-1.81,3.55-3.36,3.55-2.06,0-3.36-1.27-3.36-3.55s1.55-3.55,3.36-3.55Z"/>
      <path class="cls-1" d="m337.57,164.66s1.55.45,4.34.45c3.1,0,5.84-.86,5.84-4.01,0-5.49-14.41-2.94-14.41-12.2,0-5.28,4.14-7.93,9.45-7.93,4.08,0,8.83,1.52,8.83,1.52l-.15,6.86h-3.36l-.82-3.96s-1.6-.61-4.18-.61-4.6.81-4.6,3.41c0,5.44,14.41,3.36,14.41,12.04,0,5.85-5.16,8.69-11.36,8.69-4.76,0-8.16-1.12-8.16-1.12v-7.52h3.61l.57,4.37h0Z"/>
    </g>
  </g>
  <rect class="cls-1" x="-8.34" y="350.89" width="482.14" height="2"/>
  <rect class="cls-1" x="-8.34" y="364.89" width="482.14" height="2"/>
</svg>