<?xml version="1.0" encoding="utf-8"?>
<!-- Generator: Adobe Illustrator 27.8.1, SVG Export Plug-In . SVG Version: 6.00 Build 0)  -->
<svg version="1.1" id="Layer_1" xmlns="http://www.w3.org/2000/svg" xmlns:xlink="http://www.w3.org/1999/xlink" x="0px" y="0px"
	 viewBox="0 0 454 454" style="enable-background:new 0 0 454 454;" xml:space="preserve">
<style type="text/css">
	.st0{fill:#FFE7C2;}
</style>
<rect y="0" class="st0" width="454" height="454"/>
<g>
	<g>
		<path d="M36.2,108c-3.5,0-5.2-2-5.2-6c0-1,0.1-2.1,0.3-3.3l2.3-14.1h-5.1l0.6-3.3l5.2-0.5l1-6.4l5.1-1l-1.2,7.4h7.1l-0.6,3.8h-7.1
			l-2.2,13.6c-0.2,1.3-0.3,2.4-0.3,3.2c0,1.8,0.6,2.5,2,2.5c1.4,0,4.2-1,4.2-1l0.8,2.7C43,105.7,39.1,108,36.2,108L36.2,108z"/>
		<path d="M67.6,80c4.1,0,5.6,2.5,5.6,6.1c0,0.9-0.1,1.9-0.3,3l-2.3,14.2l4.3,0.8l-0.5,2.8l-9.4,0.5L68,89.9
			c0.1-0.8,0.2-1.5,0.2-2.2c0-1.9-0.6-3.4-2.7-3.4c-6.7,0-10.8,14-10.8,14l-1.7,9.1h-4.9l5.7-35.1l-4.3-1l0.5-2.8l9.4-0.3l-4,22
			C55.6,89.8,59.8,80,67.6,80L67.6,80z"/>
		<path d="M84.3,96.4c-0.1,0.8-0.2,1.5-0.2,2.2c0,3.6,1.8,5.3,5.7,5.3c3.9,0,8.5-2.3,8.5-2.3l1.5,2.6c0,0-5.5,3.8-11.6,3.8
			c-5.7,0-9.3-3.6-9.3-9.1C79,88.3,85.7,80,93.9,80c5.2,0,8.5,2.6,8.5,6.6C102.4,92.5,95,96.5,84.3,96.4L84.3,96.4z M97.5,87.2
			c0-2.2-1.5-3.4-3.6-3.4c-3.2,0-7.8,3-9.2,9.1C92.1,92.9,97.5,90.5,97.5,87.2L97.5,87.2z"/>
		<path d="M127.2,108c-5.9,0-9.5-4-9.5-10.1c0-10.7,6.3-17.9,15.2-17.9c6.3,0,9.7,4.2,9.7,10C142.6,101.1,136.1,108,127.2,108z
			 M137.5,89.9c0-4.3-2.4-5.8-5.5-5.8c-6,0-9.1,6.6-9.1,14c0,4.1,2.2,5.8,5.3,5.8C134.1,103.9,137.5,98.1,137.5,89.9L137.5,89.9z"/>
		<path d="M158.3,76.7l-0.7,4.1h7.3l-0.7,3.8H157l-3.9,23.9c-1,6.4-3.9,11.2-10.6,11.2c-1.8,0-4.3-0.7-4.3-0.7l0.9-3.3h3.7
			c3.1,0,4.6-2.4,5.3-6.2l4-24.9h-4.9l0.5-3.3l5-0.5l0.5-3c0.9-5.8,3.8-9.9,10.3-9.9c3.6,0,7.2,1,7.2,1l-1.3,7.1H166v-4.1h-2.5
			C159.8,71.9,158.8,74,158.3,76.7L158.3,76.7z"/>
		<path d="M190.6,103.4l4.4,1.3l-0.4,2.8H185l3.7-22.9h-12.2l-3.9,23.9c-1,6.4-3.9,11.2-10.8,11.2c-2.1,0-3.8-0.5-3.8-0.5l0.6-3.6
			h3.7c3.1,0,4.6-2.3,5.3-6.1l4-24.9h-4.9l0.5-3.3l5-0.5l0.5-3c1-6.1,3.6-9.9,12.6-9.9c5.2,0,10.4,1,10.4,1l-1.5,7.2h-3.5v-4
			c-1.6-0.1-3.6-0.2-5.9-0.2c-4.6,0-6.5,1.8-7,4.8l-0.7,4.1h12.2l5-0.3L190.6,103.4L190.6,103.4z"/>
		<path d="M217.7,88.9l-0.2-4.3c0,0-1.2-0.5-3.4-0.5c-5.9,0-9.3,6.9-9.3,14.2c0,3.8,1.8,5.6,4.9,5.6c3.6,0,7.7-2.3,7.7-2.3l1.5,2.5
			c0,0-5.2,3.8-10.3,3.8c-5.2,0-9-3.3-9-9.4c0-11.2,6.5-18.5,15.2-18.5c4.1,0,7.2,2,7.2,2l-1.1,6.9L217.7,88.9L217.7,88.9z"/>
		<path d="M228.4,96.4c-0.1,0.8-0.2,1.5-0.2,2.2c0,3.6,1.8,5.3,5.7,5.3s8.5-2.3,8.5-2.3l1.5,2.6c0,0-5.5,3.8-11.6,3.8
			c-5.7,0-9.3-3.6-9.3-9.1c0-10.5,6.7-18.8,14.9-18.8c5.2,0,8.5,2.6,8.5,6.6C246.5,92.5,239.1,96.5,228.4,96.4L228.4,96.4z
			 M241.6,87.2c0-2.2-1.5-3.4-3.6-3.4c-3.2,0-7.8,3-9.2,9.1C236.2,92.9,241.6,90.5,241.6,87.2L241.6,87.2z"/>
	</g>
	<g>
		<path d="M58.9,165.4v2.8l-8.8,0.3l-0.4-2.9c-1.5,1.5-4.2,3.4-8.1,3.4c-7.5,0-10.8-5.3-10.8-13.2c0-8.6,4.4-14.7,13.7-14.7
			c1.9,0,3.6,0.4,4.9,0.8v-8.4l-4.4-1v-2.8l9.6-0.3v35.1L58.9,165.4L58.9,165.4z M44,145.1c-6,0-7.7,4.6-7.7,10.2s1.8,9.7,6.5,9.7
			c4.4,0,6.7-3.8,6.7-3.8v-15C49.4,146.1,47.6,145.1,44,145.1z"/>
		<path d="M74.2,141c6,0,9.6,2,9.6,7.9v15.5l4.1,1v2.8l-8,0.3l-1.1-3.6c-1.8,1.7-4.9,4.1-8.5,4.1c-4.9,0-7.7-2.8-7.7-7.6
			c0-5.8,4.6-7.9,11.9-7.9h4.1v-4.1c0-3-1.8-4.6-4.9-4.6c-3.1,0-5.2,0.8-5.2,0.8l-0.7,3.8h-3.4l-0.3-6.4C64.1,143,69.8,141,74.2,141
			L74.2,141z M67.8,161.1c0,2.3,1.4,3.8,3.8,3.8c3.9,0,7-4.1,7-4.1v-4.1H75C69.8,156.7,67.8,158,67.8,161.1L67.8,161.1z"/>
		<path d="M108.3,141.7v3.8h-7.5v16.3c0,2.3,1.1,3.1,2.6,3.1c1.2,0,2.7-0.6,4-1.3l1.4,2.7c-2.3,1.7-4.6,2.5-7.2,2.5
			c-3.1,0-5.9-1.7-5.9-7.4v-16h-5.2v-3.3l5.2-0.5v-6.4l5.2-1v7.4C100.8,141.7,108.3,141.7,108.3,141.7z"/>
		<path d="M123.8,141c6,0,9.6,2,9.6,7.9v15.5l4.1,1v2.8l-8,0.3l-1.1-3.6c-1.8,1.7-4.9,4.1-8.5,4.1c-4.9,0-7.7-2.8-7.7-7.6
			c0-5.8,4.6-7.9,11.9-7.9h4.1v-4.1c0-3-1.8-4.6-4.9-4.6c-3.1,0-5.2,0.8-5.2,0.8l-0.7,3.8H114l-0.3-6.4
			C113.7,143,119.4,141,123.8,141L123.8,141z M117.4,161.1c0,2.3,1.4,3.8,3.8,3.8c3.9,0,7-4.1,7-4.1v-4.1h-3.6
			C119.4,156.7,117.4,158,117.4,161.1L117.4,161.1z"/>
		<path d="M164.8,141c6,0,9.6,2,9.6,7.9v15.5l4.1,1v2.8l-8,0.3l-1.1-3.6c-1.8,1.7-4.9,4.1-8.5,4.1c-4.9,0-7.7-2.8-7.7-7.6
			c0-5.8,4.6-7.9,11.9-7.9h4.1v-4.1c0-3-1.8-4.6-4.9-4.6c-3.1,0-5.2,0.8-5.2,0.8l-0.7,3.8H155l-0.3-6.4
			C154.7,143,160.4,141,164.8,141L164.8,141z M158.5,161.1c0,2.3,1.4,3.8,3.8,3.8c3.9,0,7-4.1,7-4.1v-4.1h-3.6
			C160.4,156.7,158.5,158,158.5,161.1L158.5,161.1z"/>
		<path d="M200.7,141c5.7,0,8.3,3.6,8.3,9.1v14.2l3.9,1.3v2.8h-12.4v-2.8l3.4-1.3v-13.7c0-3.6-1.3-5.3-4.6-5.3
			c-4.4,0-7.5,4.1-7.5,4.1v15l3.4,1.3v2.8h-12.9v-2.8l4.4-1.3v-18.8l-4.4-1v-2.8l8.5-0.3l0.5,3.6C192.3,144,196.4,141,200.7,141
			L200.7,141z"/>
		<path d="M228.3,141c6,0,9.6,2,9.6,7.9v15.5l4.1,1v2.8l-8,0.3l-1.1-3.6c-1.8,1.7-4.9,4.1-8.5,4.1c-4.9,0-7.7-2.8-7.7-7.6
			c0-5.8,4.6-7.9,11.9-7.9h4.1v-4.1c0-3-1.8-4.6-4.9-4.6s-5.2,0.8-5.2,0.8l-0.7,3.8h-3.4l-0.3-6.4C218.3,143,224,141,228.3,141
			L228.3,141z M222,161.1c0,2.3,1.4,3.8,3.8,3.8c3.9,0,7-4.1,7-4.1v-4.1h-3.6C224,156.7,222,158,222,161.1L222,161.1z"/>
		<path d="M259.4,165.6v2.8h-14.3v-2.8l4.4-1.3v-31l-4.4-1v-2.8l9.7-0.3v35.1L259.4,165.6L259.4,165.6z"/>
		<path d="M268.7,145l6.2,17.8l5.7-17.5l-3.6-0.8v-2.8l12.2-0.3v3l-3.4,0.5l-7.3,20.1c-2.7,7.1-5.4,15.4-13.9,15.4
			c-1.3,0-3.3-0.3-3.3-0.3l0.5-3.9c0.6,0.1,1.1,0.1,1.7,0.1c4.5,0,6.1-1.6,9.1-8l-9.2-23.2l-3.1-0.8v-2.8l12.1-0.3v3L268.7,145
			L268.7,145z"/>
		<path d="M296,164.7c0,0,1.5,0.5,4.3,0.5c3.1,0,5.8-0.9,5.8-4c0-5.5-14.4-2.9-14.4-12.2c0-5.3,4.1-7.9,9.4-7.9
			c4.1,0,8.8,1.5,8.8,1.5l-0.2,6.9h-3.4l-0.8-4c0,0-1.6-0.6-4.2-0.6s-4.6,0.8-4.6,3.4c0,5.4,14.4,3.4,14.4,12
			c0,5.8-5.2,8.7-11.4,8.7c-4.8,0-8.2-1.1-8.2-1.1v-7.5h3.6L296,164.7L296,164.7z"/>
		<path d="M329.2,165.6v2.8h-13.4v-2.8l4.4-1.3v-18.8l-4.4-1v-2.8l9.6-0.3v22.9L329.2,165.6L329.2,165.6z M322.5,129.5
			c2.1,0,3.4,1,3.4,3.6c0,2.3-1.8,3.6-3.4,3.6c-2.1,0-3.4-1.3-3.4-3.6S320.7,129.5,322.5,129.5z"/>
		<path d="M337.6,164.7c0,0,1.5,0.5,4.3,0.5c3.1,0,5.8-0.9,5.8-4c0-5.5-14.4-2.9-14.4-12.2c0-5.3,4.1-7.9,9.4-7.9
			c4.1,0,8.8,1.5,8.8,1.5l-0.2,6.9h-3.4l-0.8-4c0,0-1.6-0.6-4.2-0.6s-4.6,0.8-4.6,3.4c0,5.4,14.4,3.4,14.4,12
			c0,5.8-5.2,8.7-11.4,8.7c-4.8,0-8.2-1.1-8.2-1.1v-7.5h3.6L337.6,164.7L337.6,164.7z"/>
	</g>
</g>
<rect x="-8.3" y="350.9" width="482.1" height="2"/>
<rect x="-8.3" y="364.9" width="482.1" height="2"/>
</svg>
