<svg id="Calque_1" data-name="Calque 1" xmlns="http://www.w3.org/2000/svg" width="285" height="286.36" viewBox="0 0 285 286.36"><defs><style>.cls-1{fill:#fff;}.cls-2{isolation:isolate;}.cls-3{fill:#00a99d;}</style></defs><title>Plan de travail 1</title><g id="Calque_1-2" data-name="Calque 1-2"><rect class="cls-1" width="285" height="285"/><g class="cls-2"><g class="cls-2"><path d="M23.3721,67.0215a6.3043,6.3043,0,0,1-1.4844-4.2573v-21.22h-3.936V39.4814h3.936V31.4326h2.5811v8.0488h3.7426v2.0625H24.4688v21.22a4.8549,4.8549,0,0,0,.8388,2.86,2.2644,2.2644,0,0,0,1.9361,1.1973,3.8385,3.8385,0,0,0,2-.4654v1.9292a6.8461,6.8461,0,0,1-2.1939.5323A4.7119,4.7119,0,0,1,23.3721,67.0215Z"/><path d="M33.8247,67.82V28.3726h2.5811V44.8032a10.7246,10.7246,0,0,1,3.8715-4.59,9.4839,9.4839,0,0,1,5.4844-1.73,8.7508,8.7508,0,0,1,6.6465,2.9932,9.97,9.97,0,0,1,2.7744,7.1181V67.82h-2.581V49.1274a8.83,8.83,0,0,0-2-5.854,6.0441,6.0441,0,0,0-4.8394-2.4614,8.2512,8.2512,0,0,0-5.7427,2.3945,11.8,11.8,0,0,0-3.6132,6.12V67.82Z"/><path d="M64.667,64.6934q-3.3552-4.191-3.355-11.0425t3.355-11.043a10.9044,10.9044,0,0,1,8.9048-4.124,11.3086,11.3086,0,0,1,8.9048,3.7915q3.3537,3.7917,3.3549,10.1113v1.2642H63.8931q0,5.7869,2.6455,9.2461a8.4124,8.4124,0,0,0,7.0332,3.4594A10.3291,10.3291,0,0,0,79.5083,64.56a9.5567,9.5567,0,0,0,3.7422-4.856h2.581a9.9539,9.9539,0,0,1-4.1294,6.519,13.2417,13.2417,0,0,1-8.13,2.5948A10.902,10.902,0,0,1,64.667,64.6934Zm18.5835-13.57v-.998a10.2161,10.2161,0,0,0-3.0972-6.6523,9.3371,9.3371,0,0,0-6.5815-2.6607A8.9969,8.9969,0,0,0,67.0547,43.54a10.46,10.46,0,0,0-3.1616,6.8515v.7319Z"/></g><g class="cls-2"><path d="M21.63,142.7236V103.7417h2.581v5.854a10.5343,10.5343,0,0,1,3.6778-4.9893,9.4944,9.4944,0,0,1,5.6782-1.8623,10.7256,10.7256,0,0,1,8.84,4.1241q3.3538,4.1908,3.355,11.0429,0,6.6526-3.2261,10.6431a10.3,10.3,0,0,1-8.5175,3.9917,10.1171,10.1171,0,0,1-5.8072-1.7964,10.8442,10.8442,0,0,1-4.0005-4.7231v16.6972ZM40.6,127.0908a15.837,15.837,0,0,0,2.5811-9.4458q0-5.8527-2.5811-9.313a7.91,7.91,0,0,0-6.7749-3.5258,8.1831,8.1831,0,0,0-6.7754,3.7919,14.4828,14.4828,0,0,0-2.8389,9.0469,14.874,14.874,0,0,0,2.8389,9.18,8.1832,8.1832,0,0,0,6.7754,3.792A7.9074,7.9074,0,0,0,40.6,127.0908Z"/><path d="M52.3438,132.08V103.7417h2.581v6.3862a12.0979,12.0979,0,0,1,3.2261-4.9892,7.0814,7.0814,0,0,1,4.646-1.8623h1.4839v3.06a1.0045,1.0045,0,0,1-.4517-.1328.6644.6644,0,0,0-.2578-.1328,7.3317,7.3317,0,0,0-5.4849,2.6607,12.95,12.95,0,0,0-3.1616,6.7187v16.63Z"/><path d="M68.7974,92.6328h2.581V96.69h-2.581Zm0,39.4473V103.7417h2.581V132.08Z"/><path d="M81.5732,128.82a16.3781,16.3781,0,0,1-3.8071-10.9092,15.94,15.94,0,0,1,3.8071-10.71A11.7206,11.7206,0,0,1,90.8,102.7441a11.2668,11.2668,0,0,1,7.6143,2.7271,8.6,8.6,0,0,1,3.1616,6.6523H98.9951a6.0526,6.0526,0,0,0-2.3872-4.79A8.7553,8.7553,0,0,0,90.8,105.3384a9.4225,9.4225,0,0,0-7.42,3.6587,13.6714,13.6714,0,0,0-3.0327,8.914,14.1314,14.1314,0,0,0,3.0327,9.1133,9.3055,9.3055,0,0,0,7.42,3.792,8.25,8.25,0,0,0,5.6787-2.0625,6.3024,6.3024,0,0,0,2.3872-4.9224h2.71a8.6634,8.6634,0,0,1-3.1616,6.7188A11.1058,11.1058,0,0,1,90.8,133.3438,11.6516,11.6516,0,0,1,81.5732,128.82Z"/><path d="M108.8667,128.9536q-3.3552-4.1908-3.355-11.0425t3.355-11.0429a10.9042,10.9042,0,0,1,8.9048-4.1241,11.3086,11.3086,0,0,1,8.9048,3.7915q3.3537,3.7918,3.3549,10.1114v1.2641H108.0928q0,5.7869,2.6455,9.2461a8.4123,8.4123,0,0,0,7.0332,3.46,10.3284,10.3284,0,0,0,5.9365-1.7964,9.5561,9.5561,0,0,0,3.7422-4.8559h2.581a9.9546,9.9546,0,0,1-4.1293,6.519,13.2419,13.2419,0,0,1-8.13,2.5947A10.902,10.902,0,0,1,108.8667,128.9536Zm18.5835-13.57v-.998a10.2162,10.2162,0,0,0-3.0972-6.6524,9.3374,9.3374,0,0,0-6.5815-2.6606,8.9968,8.9968,0,0,0-6.5171,2.7275,10.46,10.46,0,0,0-3.1616,6.8516v.7319Z"/></g><g class="cls-2"><path d="M23.4365,192.8242q-3.5493-3.99-3.5488-10.6426,0-6.8524,3.5488-11.0429a11.62,11.62,0,0,1,9.356-4.125,11.74,11.74,0,0,1,9.3564,4.125q3.4842,4.1894,3.4844,11.0429,0,6.6519-3.4844,10.6426a11.9154,11.9154,0,0,1-9.3564,3.9922A11.7924,11.7924,0,0,1,23.4365,192.8242Zm16.8413-1.5957q2.7738-3.3925,2.7744-9.0469,0-5.8535-2.7744-9.3134a9.14,9.14,0,0,0-7.4853-3.5264,9.025,9.025,0,0,0-7.4849,3.5264q-2.84,3.4584-2.8388,9.3134,0,5.6544,2.8388,9.0469a9.1634,9.1634,0,0,0,7.4849,3.3926A9.282,9.282,0,0,0,40.2778,191.2285Z"/><path d="M52.731,196.35V170.8721H48.4077v-2.5948H52.731v-5.3212a5.7644,5.7644,0,0,1,1.7421-4.2569,5.6334,5.6334,0,0,1,4.1944-1.7969h1.5483v2.0625H58.7319a2.9586,2.9586,0,0,0-2.3877,1.1973,3.9915,3.9915,0,0,0-1.0322,2.794v5.3212h4.9038v2.5948H55.312V196.35Z"/></g></g><g class="cls-2"><path class="cls-3" d="M21.63,258.82V219.373h2.581v16.43a10.7277,10.7277,0,0,1,3.8716-4.59,9.4865,9.4865,0,0,1,5.4844-1.7285,8.7516,8.7516,0,0,1,6.6465,2.9922,9.9721,9.9721,0,0,1,2.7744,7.1191V258.82H40.4067V240.127a8.8292,8.8292,0,0,0-2.0005-5.8536,6.0418,6.0418,0,0,0-4.8393-2.4609,8.2488,8.2488,0,0,0-5.7427,2.3945,11.7982,11.7982,0,0,0-3.6133,6.1192V258.82Z"/><path class="cls-3" d="M52.4722,255.6934q-3.3552-4.191-3.355-11.043,0-6.85,3.355-11.043a10.9064,10.9064,0,0,1,8.9048-4.123,11.3093,11.3093,0,0,1,8.9047,3.791q3.3538,3.791,3.355,10.1113V244.65H51.6982q0,5.7876,2.6456,9.2461a8.4128,8.4128,0,0,0,7.0332,3.46,10.3319,10.3319,0,0,0,5.9365-1.7959,9.5613,9.5613,0,0,0,3.7422-4.8564h2.581a9.9516,9.9516,0,0,1-4.1294,6.5186,13.2367,13.2367,0,0,1-8.13,2.5957A10.9024,10.9024,0,0,1,52.4722,255.6934Zm18.5835-13.57v-.998a10.2166,10.2166,0,0,0-3.0972-6.6523,9.3346,9.3346,0,0,0-6.5815-2.66,8.9978,8.9978,0,0,0-6.5171,2.7266,10.4632,10.4632,0,0,0-3.1617,6.8515v.7324Z"/><path class="cls-3" d="M80.3477,257.4893a7.0026,7.0026,0,0,1-.0645-11.3086,12.1123,12.1123,0,0,1,6.9688-2.794,28.0383,28.0383,0,0,0,6.6459-1.33q2.6456-.9317,2.646-2.1953V237.334a4.42,4.42,0,0,0-2.3232-3.7266,10.6844,10.6844,0,0,0-10.9048-.0664,4.3684,4.3684,0,0,0-2.1938,3.5928v1.4639H78.67v-1.7305a5.7972,5.7972,0,0,1,2.9038-4.8555,12.42,12.42,0,0,1,7.0977-1.9961,13.3037,13.3037,0,0,1,7.2915,1.93q3.0322,1.9307,3.0327,4.6563v17.1621a5.5033,5.5033,0,0,0,.71,2.8613,2.0408,2.0408,0,0,0,1.7422,1.1973,2.3058,2.3058,0,0,0,.5805-.0664.81.81,0,0,0,.3872-.1993V258.82a5.6823,5.6823,0,0,1-2.4521.4649,3.2628,3.2628,0,0,1-2.5806-1.33,5.0482,5.0482,0,0,1-1.0327-3.1934,6.6813,6.6813,0,0,1-3.291,3.6592,11.7717,11.7717,0,0,1-5.8071,1.3975A10.5374,10.5374,0,0,1,80.3477,257.4893Zm12.97-1.9952a9.3784,9.3784,0,0,0,3.2265-5.7871v-6.5195a7.7169,7.7169,0,0,1-3.291,1.33,44.2573,44.2573,0,0,1-6.0009.8652,8.4883,8.4883,0,0,0-5.0977,2.1289,5.4742,5.4742,0,0,0-2.0649,4.2569,5.2862,5.2862,0,0,0,2.1294,4.2568,7.4029,7.4029,0,0,0,5.0332,1.7969A8.9144,8.9144,0,0,0,93.3174,255.4941Z"/><path class="cls-3" d="M107.3838,258.82V219.373h2.581V258.82Z"/><path class="cls-3" d="M119.9663,258.0215a6.3045,6.3045,0,0,1-1.4844-4.2578v-21.22h-3.936v-2.0625h3.936v-8.0488h2.5811v8.0488h3.7427v2.0625H121.063v21.22a4.8581,4.8581,0,0,0,.8389,2.8613,2.2654,2.2654,0,0,0,1.936,1.1973,3.8381,3.8381,0,0,0,2-.4659v1.9288a6.8277,6.8277,0,0,1-2.1939.5332A4.7124,4.7124,0,0,1,119.9663,258.0215Z"/><path class="cls-3" d="M130.4189,258.82V219.373H133v16.43a10.7277,10.7277,0,0,1,3.8716-4.59,9.4862,9.4862,0,0,1,5.4844-1.7285,8.7492,8.7492,0,0,1,6.646,2.9922,9.9708,9.9708,0,0,1,2.7753,7.1191V258.82h-2.582V240.127a8.8294,8.8294,0,0,0-2-5.8536,6.0435,6.0435,0,0,0-4.8393-2.4609,8.2486,8.2486,0,0,0-5.7427,2.3945A11.7969,11.7969,0,0,0,133,240.3262V258.82Z"/></g></g></svg>